<mxfile host="app.diagrams.net" modified="2020-08-09T17:15:56.861Z" agent="5.0 (Windows NT 10.0; Win64; x64) AppleWebKit/537.36 (KHTML, like Gecko) Chrome/84.0.4147.105 Safari/537.36" etag="0m4dmi7-PtVXOvVCKbAB" version="13.6.2" type="github">
  <diagram id="C5RBs43oDa-KdzZeNtuy" name="Page-1">
    <mxGraphModel dx="868" dy="433" grid="1" gridSize="10" guides="1" tooltips="1" connect="1" arrows="1" fold="1" page="1" pageScale="1" pageWidth="827" pageHeight="1169" math="0" shadow="0">
      <root>
        <mxCell id="WIyWlLk6GJQsqaUBKTNV-0" />
        <mxCell id="WIyWlLk6GJQsqaUBKTNV-1" parent="WIyWlLk6GJQsqaUBKTNV-0" />
        <mxCell id="VG8H5l9zrlFiSpU1UalX-8" value="" style="edgeStyle=orthogonalEdgeStyle;rounded=0;orthogonalLoop=1;jettySize=auto;html=1;" edge="1" parent="WIyWlLk6GJQsqaUBKTNV-1" source="WIyWlLk6GJQsqaUBKTNV-3" target="WIyWlLk6GJQsqaUBKTNV-7">
          <mxGeometry relative="1" as="geometry" />
        </mxCell>
        <mxCell id="WIyWlLk6GJQsqaUBKTNV-3" value="Git clone app." style="rounded=1;whiteSpace=wrap;html=1;fontSize=12;glass=0;strokeWidth=1;shadow=0;" parent="WIyWlLk6GJQsqaUBKTNV-1" vertex="1">
          <mxGeometry x="30" y="70" width="120" height="40" as="geometry" />
        </mxCell>
        <mxCell id="VG8H5l9zrlFiSpU1UalX-7" value="" style="edgeStyle=orthogonalEdgeStyle;rounded=0;orthogonalLoop=1;jettySize=auto;html=1;" edge="1" parent="WIyWlLk6GJQsqaUBKTNV-1" source="WIyWlLk6GJQsqaUBKTNV-7" target="WIyWlLk6GJQsqaUBKTNV-12">
          <mxGeometry relative="1" as="geometry" />
        </mxCell>
        <mxCell id="WIyWlLk6GJQsqaUBKTNV-7" value="Build App" style="rounded=1;whiteSpace=wrap;html=1;fontSize=12;glass=0;strokeWidth=1;shadow=0;" parent="WIyWlLk6GJQsqaUBKTNV-1" vertex="1">
          <mxGeometry x="210" y="70" width="120" height="40" as="geometry" />
        </mxCell>
        <mxCell id="VG8H5l9zrlFiSpU1UalX-6" value="" style="edgeStyle=orthogonalEdgeStyle;rounded=0;orthogonalLoop=1;jettySize=auto;html=1;" edge="1" parent="WIyWlLk6GJQsqaUBKTNV-1" source="WIyWlLk6GJQsqaUBKTNV-12" target="VG8H5l9zrlFiSpU1UalX-5">
          <mxGeometry relative="1" as="geometry" />
        </mxCell>
        <mxCell id="WIyWlLk6GJQsqaUBKTNV-12" value="Unit Testing" style="rounded=1;whiteSpace=wrap;html=1;fontSize=12;glass=0;strokeWidth=1;shadow=0;" parent="WIyWlLk6GJQsqaUBKTNV-1" vertex="1">
          <mxGeometry x="380" y="70" width="120" height="40" as="geometry" />
        </mxCell>
        <mxCell id="VG8H5l9zrlFiSpU1UalX-17" value="" style="edgeStyle=orthogonalEdgeStyle;rounded=0;orthogonalLoop=1;jettySize=auto;html=1;entryX=0.5;entryY=1;entryDx=0;entryDy=0;exitX=0.983;exitY=0.533;exitDx=0;exitDy=0;exitPerimeter=0;" edge="1" parent="WIyWlLk6GJQsqaUBKTNV-1" source="VG8H5l9zrlFiSpU1UalX-4" target="VG8H5l9zrlFiSpU1UalX-15">
          <mxGeometry relative="1" as="geometry">
            <mxPoint x="960" y="220" as="targetPoint" />
          </mxGeometry>
        </mxCell>
        <mxCell id="VG8H5l9zrlFiSpU1UalX-32" value="" style="edgeStyle=orthogonalEdgeStyle;rounded=0;orthogonalLoop=1;jettySize=auto;html=1;" edge="1" parent="WIyWlLk6GJQsqaUBKTNV-1" source="VG8H5l9zrlFiSpU1UalX-4" target="VG8H5l9zrlFiSpU1UalX-30">
          <mxGeometry relative="1" as="geometry" />
        </mxCell>
        <mxCell id="VG8H5l9zrlFiSpU1UalX-4" value="&lt;br&gt;&lt;br&gt;Quay.io" style="shape=cylinder2;whiteSpace=wrap;html=1;boundedLbl=1;backgroundOutline=1;size=15;" vertex="1" parent="WIyWlLk6GJQsqaUBKTNV-1">
          <mxGeometry x="850" y="180" width="60" height="60" as="geometry" />
        </mxCell>
        <mxCell id="VG8H5l9zrlFiSpU1UalX-12" value="" style="edgeStyle=orthogonalEdgeStyle;rounded=0;orthogonalLoop=1;jettySize=auto;html=1;" edge="1" parent="WIyWlLk6GJQsqaUBKTNV-1" source="VG8H5l9zrlFiSpU1UalX-5" target="VG8H5l9zrlFiSpU1UalX-11">
          <mxGeometry relative="1" as="geometry" />
        </mxCell>
        <mxCell id="VG8H5l9zrlFiSpU1UalX-5" value="Integ. Testing" style="rounded=1;whiteSpace=wrap;html=1;fontSize=12;glass=0;strokeWidth=1;shadow=0;" vertex="1" parent="WIyWlLk6GJQsqaUBKTNV-1">
          <mxGeometry x="550" y="70" width="120" height="40" as="geometry" />
        </mxCell>
        <mxCell id="VG8H5l9zrlFiSpU1UalX-14" value="" style="edgeStyle=orthogonalEdgeStyle;rounded=0;orthogonalLoop=1;jettySize=auto;html=1;entryX=0.017;entryY=0.567;entryDx=0;entryDy=0;entryPerimeter=0;" edge="1" parent="WIyWlLk6GJQsqaUBKTNV-1" source="VG8H5l9zrlFiSpU1UalX-11" target="VG8H5l9zrlFiSpU1UalX-4">
          <mxGeometry relative="1" as="geometry" />
        </mxCell>
        <mxCell id="VG8H5l9zrlFiSpU1UalX-18" value="" style="edgeStyle=orthogonalEdgeStyle;rounded=0;orthogonalLoop=1;jettySize=auto;html=1;" edge="1" parent="WIyWlLk6GJQsqaUBKTNV-1" source="VG8H5l9zrlFiSpU1UalX-11" target="VG8H5l9zrlFiSpU1UalX-15">
          <mxGeometry relative="1" as="geometry" />
        </mxCell>
        <mxCell id="VG8H5l9zrlFiSpU1UalX-11" value="Build Image" style="rounded=1;whiteSpace=wrap;html=1;fontSize=12;glass=0;strokeWidth=1;shadow=0;" vertex="1" parent="WIyWlLk6GJQsqaUBKTNV-1">
          <mxGeometry x="730" y="70" width="120" height="40" as="geometry" />
        </mxCell>
        <mxCell id="VG8H5l9zrlFiSpU1UalX-20" value="" style="edgeStyle=orthogonalEdgeStyle;rounded=0;orthogonalLoop=1;jettySize=auto;html=1;" edge="1" parent="WIyWlLk6GJQsqaUBKTNV-1" source="VG8H5l9zrlFiSpU1UalX-15" target="VG8H5l9zrlFiSpU1UalX-19">
          <mxGeometry relative="1" as="geometry" />
        </mxCell>
        <mxCell id="VG8H5l9zrlFiSpU1UalX-15" value="Deploy DEV" style="rounded=1;whiteSpace=wrap;html=1;fontSize=12;glass=0;strokeWidth=1;shadow=0;" vertex="1" parent="WIyWlLk6GJQsqaUBKTNV-1">
          <mxGeometry x="910" y="70" width="120" height="40" as="geometry" />
        </mxCell>
        <mxCell id="VG8H5l9zrlFiSpU1UalX-22" value="" style="edgeStyle=orthogonalEdgeStyle;rounded=0;orthogonalLoop=1;jettySize=auto;html=1;" edge="1" parent="WIyWlLk6GJQsqaUBKTNV-1" source="VG8H5l9zrlFiSpU1UalX-19" target="VG8H5l9zrlFiSpU1UalX-21">
          <mxGeometry relative="1" as="geometry" />
        </mxCell>
        <mxCell id="VG8H5l9zrlFiSpU1UalX-19" value="Stress test" style="rounded=1;whiteSpace=wrap;html=1;fontSize=12;glass=0;strokeWidth=1;shadow=0;" vertex="1" parent="WIyWlLk6GJQsqaUBKTNV-1">
          <mxGeometry x="1090" y="70" width="120" height="40" as="geometry" />
        </mxCell>
        <mxCell id="VG8H5l9zrlFiSpU1UalX-24" value="" style="edgeStyle=orthogonalEdgeStyle;rounded=0;orthogonalLoop=1;jettySize=auto;html=1;" edge="1" parent="WIyWlLk6GJQsqaUBKTNV-1" source="VG8H5l9zrlFiSpU1UalX-21" target="VG8H5l9zrlFiSpU1UalX-23">
          <mxGeometry relative="1" as="geometry" />
        </mxCell>
        <mxCell id="VG8H5l9zrlFiSpU1UalX-25" value="Yes" style="edgeLabel;html=1;align=center;verticalAlign=middle;resizable=0;points=[];" vertex="1" connectable="0" parent="VG8H5l9zrlFiSpU1UalX-24">
          <mxGeometry x="-0.2444" y="6" relative="1" as="geometry">
            <mxPoint as="offset" />
          </mxGeometry>
        </mxCell>
        <mxCell id="VG8H5l9zrlFiSpU1UalX-29" value="" style="edgeStyle=orthogonalEdgeStyle;rounded=0;orthogonalLoop=1;jettySize=auto;html=1;" edge="1" parent="WIyWlLk6GJQsqaUBKTNV-1" source="VG8H5l9zrlFiSpU1UalX-21" target="VG8H5l9zrlFiSpU1UalX-28">
          <mxGeometry relative="1" as="geometry" />
        </mxCell>
        <mxCell id="VG8H5l9zrlFiSpU1UalX-21" value="Deploy to PROD ?" style="rhombus;whiteSpace=wrap;html=1;rounded=1;shadow=0;strokeWidth=1;glass=0;" vertex="1" parent="WIyWlLk6GJQsqaUBKTNV-1">
          <mxGeometry x="1110" y="170" width="80" height="80" as="geometry" />
        </mxCell>
        <mxCell id="VG8H5l9zrlFiSpU1UalX-31" value="" style="edgeStyle=orthogonalEdgeStyle;rounded=0;orthogonalLoop=1;jettySize=auto;html=1;" edge="1" parent="WIyWlLk6GJQsqaUBKTNV-1" source="VG8H5l9zrlFiSpU1UalX-23" target="VG8H5l9zrlFiSpU1UalX-30">
          <mxGeometry relative="1" as="geometry" />
        </mxCell>
        <mxCell id="VG8H5l9zrlFiSpU1UalX-23" value="Copy Image to Quay.io - tag prod" style="whiteSpace=wrap;html=1;rounded=1;shadow=0;strokeWidth=1;glass=0;" vertex="1" parent="WIyWlLk6GJQsqaUBKTNV-1">
          <mxGeometry x="1090" y="340" width="120" height="40" as="geometry" />
        </mxCell>
        <mxCell id="VG8H5l9zrlFiSpU1UalX-28" value="ABORT" style="ellipse;whiteSpace=wrap;html=1;aspect=fixed;" vertex="1" parent="WIyWlLk6GJQsqaUBKTNV-1">
          <mxGeometry x="1260" y="190" width="40" height="40" as="geometry" />
        </mxCell>
        <mxCell id="VG8H5l9zrlFiSpU1UalX-34" value="" style="edgeStyle=orthogonalEdgeStyle;rounded=0;orthogonalLoop=1;jettySize=auto;html=1;" edge="1" parent="WIyWlLk6GJQsqaUBKTNV-1" source="VG8H5l9zrlFiSpU1UalX-30" target="VG8H5l9zrlFiSpU1UalX-33">
          <mxGeometry relative="1" as="geometry" />
        </mxCell>
        <mxCell id="VG8H5l9zrlFiSpU1UalX-30" value="Deploy PROD" style="whiteSpace=wrap;html=1;rounded=1;shadow=0;strokeWidth=1;glass=0;" vertex="1" parent="WIyWlLk6GJQsqaUBKTNV-1">
          <mxGeometry x="890" y="340" width="120" height="40" as="geometry" />
        </mxCell>
        <mxCell id="VG8H5l9zrlFiSpU1UalX-33" value="END" style="ellipse;whiteSpace=wrap;html=1;aspect=fixed;" vertex="1" parent="WIyWlLk6GJQsqaUBKTNV-1">
          <mxGeometry x="800" y="340" width="40" height="40" as="geometry" />
        </mxCell>
      </root>
    </mxGraphModel>
  </diagram>
</mxfile>
